Plot: John McClane travels to Russia to help out his seemingly wayward son, Jack, only to discover that Jack is a CIA operative working to prevent a nuclear-weapons heist, causing the father and son to team up against underworld forces. 

MediaInfo 0.7.61:
General
Complete name                            : D:Krepkij.oreshek.Horoshij.den.chtoby.umeret.2013.D.CAMRip.1400MB.avi
Format                                   : AVI
Format/Info                              : Audio Video Interleave
File size                                : 1.37 GiB
Duration                                 : 1h 31mn
Overall bit rate                         : 2 137 Kbps
Writing application                      : VirtualDubMod 1.5.10.3 | www.virtualdub-fr.org || (build 2550/release)
Writing library                          : VirtualDubMod build 2550/release

Video
ID                                       : 0
Format                                   : MPEG-4 Visual
Format profile                           : Advanced Simple@L5
Format settings, BVOP                    : 2
Format settings, QPel                    : No
Format settings, GMC                     : No warppoints
Format settings, Matrix                  : Default (MPEG)
Muxing mode                              : Packed bitstream
Codec ID                                 : XVID
Codec ID/Hint                            : XviD
Duration                                 : 1h 31mn
Bit rate                                 : 1 936 Kbps
Width                                    : 720 pixels
Height                                   : 304 pixels
Display aspect ratio                     : 2.35:1
Frame rate                               : 25.000 fps
Color space                              : YUV
Chroma subsampling                       : 4:2:0
Bit depth                                : 8 bits
Scan type                                : Progressive
Compression mode                         : Lossy
Bits/(Pixel*Frame)                       : 0.354
Stream size                              : 1.24 GiB (91%)
Writing library                          : XviD 73

Audio
ID                                       : 1
Format                                   : MPEG Audio
Format version                           : Version 1
Format profile                           : Layer 3
Codec ID                                 : 55
Codec ID/Hint                            : MP3
Duration                                 : 1h 31mn
Bit rate mode                            : Constant
Bit rate                                 : 192 Kbps
Channel(s)                               : 2 channels
Sampling rate                            : 44.1 KHz
Compression mode                         : Lossy
Stream size                              : 126 MiB (9%)
Alignment                                : Split accross interleaves
Interleave, duration                     : 40 ms (1.00 video frame)
Interleave, preload duration             : 500 ms

Screenshots: 
http://img534.imageshack.us/img534/8283/grabl.png 
http://img834.imageshack.us/img834/9055/grab2wg.png 
http://img651.imageshack.us/img651/6976/grab3rz.png 
http://img189.imageshack.us/img189/1001/grab4zv.png 
http://img171.imageshack.us/img171/9140/grab5i.png 
http://img822.imageshack.us/img822/5863/grab6ah.png 
http://img96.imageshack.us/img96/2734/grab7t.png 
http://img89.imageshack.us/img89/4393/grab8x.png 
http://img534.imageshack.us/img534/9079/grab9v.png 
http://img716.imageshack.us/img716/1735/grab10e.png 
http://img547.imageshack.us/img547/3012/grab11v.png 
http://img33.imageshack.us/img33/96/grab12in.png